<svg width="300" height="143" xmlns="http://www.w3.org/2000/svg" xmlns:svg="http://www.w3.org/2000/svg" style="vector-effect: non-scaling-stroke;" stroke="null" preserveAspectRatio="xMidYMid meet">
 <metadata style="vector-effect: non-scaling-stroke;" stroke="null">Created by potrace 1.10, written by Peter Selinger 2001-2011</metadata>
 <g stroke="null">
  <title stroke="null">Layer 1</title>
  <text style="cursor: move;" stroke="#000000" font-style="italic" font-weight="bold" transform="rotate(-5.007440090179443 177.5250549316403,104.47510528564435) matrix(2.7927437828864132,0,0,1.914351687673322,-134.9349804253235,-60.547992511389936) " xml:space="preserve" text-anchor="middle" font-family="Cursive" font-size="24" id="svg_18" y="95.90338" x="110.94681" stroke-width="0" fill="#e5e5e5">MUSIC</text>
  <g id="svg_1" fill="#b6adad" transform="rotate(-6.5554609298706055 141.59420776367196,58.58235549926744) translate(0,143) scale(0.10000000149011612,-0.10000000149011612) ">
   <path stroke="null" id="svg_2" d="m2678.9414,1471.43793c-30.7821,-46.44242 -91.44095,-110.89311 -255.31038,-272.01986c-35.30888,-34.12096 -74.23919,-71.08533 -87.81953,-81.51118l-24.44461,-19.90389l25.34997,-89.09361l26.25532,-89.09361l-65.18563,-20.8517c-35.30888,-12.32146 -104.11593,-31.27754 -152.0998,-42.6512c-48.88922,-11.37365 -88.72488,-23.69511 -88.72488,-27.48633c0,-7.58244 0.90536,-7.58244 107.73736,19.90389c41.64637,11.37365 81.48203,18.00828 87.81953,15.16487c20.82319,-8.53024 14.4857,-28.43413 -14.4857,-45.49461c-21.72854,-13.26926 -27.16068,-13.26926 -27.16068,-2.84341c0,7.58244 -4.52678,16.11267 -9.95892,19.90389c-7.24285,4.73902 -9.05356,-0.9478 -6.33749,-18.95609c3.62142,-17.06048 0.90536,-27.48633 -7.24285,-31.27754c-7.24285,-2.84341 -12.67498,-9.47804 -12.67498,-14.21707c0,-5.68683 5.43214,-7.58244 12.67498,-4.73902c9.05356,3.79122 14.4857,-5.68683 18.10712,-33.17315c4.52678,-30.32974 2.71607,-40.75559 -9.95892,-52.12924c-15.39105,-12.32146 -14.4857,-13.26926 4.52678,-7.58244c16.29641,4.73902 19.91783,1.89561 19.91783,-13.26926c0,-11.37365 4.52678,-19.90389 9.05356,-19.90389c5.43214,0 7.24285,10.42585 3.62142,23.69511c-4.52678,18.00828 0,28.43413 15.39105,42.6512c28.97139,24.64291 35.30888,23.69511 35.30888,-3.79122c0,-13.26926 4.52678,-26.53852 9.05356,-29.38194c6.33749,-3.79122 9.05356,8.53024 7.24285,34.12096c-2.71607,44.54681 10.86427,57.81607 24.44461,25.59072c14.4857,-35.06876 50.69993,-28.43413 69.71241,11.37365c14.4857,28.43413 23.53925,35.06876 86.00881,54.02485c100.49451,29.38194 283.37641,99.51946 283.37641,108.0497c0,3.79122 -33.49817,-5.68683 -74.23919,-21.7995c-60.65885,-23.69511 -265.26929,-92.88483 -274.32285,-92.88483c-3.62142,0 -33.49817,115.63214 -29.87675,117.52774c1.81071,0.9478 25.34997,11.37365 54.32136,22.74731l50.69993,19.90389l5.43214,-23.69511c3.62142,-14.21707 12.67498,-22.74731 23.53925,-22.74731c19.01247,0 45.2678,33.17315 45.2678,57.81607c0,10.42585 33.49817,35.06876 95.06237,70.13753c52.51064,30.32974 95.06237,58.76387 95.06237,64.4507c0,4.73902 -9.05356,2.84341 -19.91783,-4.73902c-38.93031,-26.53852 -162.05871,-94.78044 -163.86943,-91.93703c-1.81071,3.79122 -57.94278,145.96188 -81.48203,207.56916c-8.1482,22.74731 -2.71607,31.27754 81.48203,118.47555c83.29275,87.198 154.81587,180.08283 145.76231,190.50868c-2.71607,1.89561 -19.01247,-18.95609 -37.11959,-46.44242zm-193.74617,-288.13254c1.81071,-9.47804 7.24285,-23.69511 10.86427,-33.17315c4.52678,-12.32146 -9.95892,-24.64291 -70.61776,-58.76387c-41.64637,-23.69511 -78.76597,-43.599 -82.38739,-43.599c-17.20176,0 -0.90536,36.01657 24.44461,54.02485c16.29641,11.37365 45.2678,38.85998 65.18563,59.71168c39.83566,42.6512 46.17315,45.49461 52.51064,21.7995zm40.74102,-106.15409c18.10712,-45.49461 18.10712,-46.44242 0.90536,-51.18144c-9.95892,-2.84341 -21.72854,-18.00828 -27.16068,-33.17315c-7.24285,-22.74731 -19.01247,-32.22535 -63.37492,-49.28583c-30.7821,-11.37365 -56.13207,-18.95609 -57.03742,-17.06048c-10.86427,12.32146 -33.49817,107.1019 -27.16068,108.99751c4.52678,1.89561 38.93031,21.7995 76.0499,44.54681c37.11959,22.74731 70.61776,41.70339 73.33383,42.6512c3.62142,0.9478 14.4857,-19.90389 24.44461,-45.49461zm13.58034,-105.20629c-2.71607,-10.42585 -8.1482,-21.7995 -12.67498,-24.64291c-9.05356,-5.68683 -10.86427,27.48633 -1.81071,36.96437c11.76963,12.32146 19.01247,6.63463 14.4857,-12.32146zm-172.01763,-72.98094c2.71607,-4.73902 7.24285,-20.8517 9.95892,-36.96437c5.43214,-24.64291 3.62142,-30.32974 -11.76963,-35.06876c-9.95892,-2.84341 -25.34997,-17.06048 -34.40353,-31.27754c-24.44461,-40.75559 -45.2678,-39.80778 -49.79458,0.9478c-2.71607,24.64291 0.90536,36.96437 9.95892,42.6512c9.95892,5.68683 10.86427,8.53024 2.71607,9.47804c-6.33749,0 -17.20176,5.68683 -23.53925,11.37365c-9.95892,10.42585 -3.62142,15.16487 34.40353,27.48633c56.13207,19.90389 57.94278,19.90389 62.46956,11.37365zm-94.15702,-129.8492c0.90536,-18.95609 -31.68746,-62.55509 -46.17315,-62.55509c-17.20176,0 -5.43214,25.59072 18.10712,36.01657l24.44461,11.37365l-23.53925,-4.73902c-35.30888,-6.63463 -41.64637,26.53852 -9.95892,51.18144c22.6339,17.06048 25.34997,17.06048 30.7821,2.84341c3.62142,-8.53024 6.33749,-24.64291 6.33749,-34.12096zm109.54807,21.7995c0,-16.11267 -18.10712,-46.44242 -27.16068,-46.44242c-12.67498,0 -10.86427,32.22535 1.81071,45.49461c13.58034,14.21707 25.34997,14.21707 25.34997,0.9478z"/>
   <path stroke="null" id="svg_3" d="m258.01962,1366.23165c-21.72854,-19.90389 -25.34997,-30.32974 -28.06603,-87.198c-0.90536,-36.01657 2.71607,-107.1019 9.95892,-158.28333c9.05356,-67.29411 9.95892,-94.78044 2.71607,-96.67605c-5.43214,-1.89561 -46.17315,-8.53024 -91.44095,-15.16487c-45.2678,-5.68683 -85.10346,-15.16487 -90.53559,-19.90389c-9.95892,-9.47804 58.84814,-1.89561 143.04624,16.11267l51.60529,11.37365l0,-25.59072c0,-14.21707 -19.91783,-66.34631 -45.2678,-114.68433c-65.18563,-130.79701 -90.53559,-206.62136 -90.53559,-273.91547c0,-54.02485 -0.90536,-56.86826 -22.6339,-56.86826c-12.67498,0 -22.6339,-3.79122 -22.6339,-9.47804c0,-11.37365 2.71607,-11.37365 29.87675,-0.9478c19.01247,7.58244 25.34997,4.73902 41.64637,-18.00828c26.25532,-37.91218 77.86061,-52.12924 142.14088,-37.91218c26.25532,5.68683 51.60529,10.42585 55.22671,10.42585c11.76963,0 28.06603,-86.2502 28.97139,-150.7009c1.81071,-100.46727 -32.59281,-153.54431 -98.6838,-153.54431l-31.68746,0.9478l28.97139,13.26926c66.99634,30.32974 65.18563,123.21457 -2.71607,152.59651c-26.25532,11.37365 -35.30888,11.37365 -61.5642,0c-83.29275,-36.01657 -62.46956,-149.75309 31.68746,-176.29162c43.45709,-12.32146 78.76597,-3.79122 110.45342,26.53852c48.88922,48.33802 56.13207,160.17894 19.01247,289.08034c-2.71607,9.47804 0,16.11267 7.24285,16.11267c22.6339,0.9478 99.58915,68.24192 123.12841,108.0497c22.6339,37.91218 30.7821,43.599 115.88556,74.87655l91.44095,33.17315l9.05356,-86.2502l9.05356,-87.198l0.90536,90.98922l1.81071,90.98922l52.51064,12.32146c120.41234,28.43413 221.81221,13.26926 508.81004,-75.82435c192.84082,-60.65948 296.95675,-82.45898 454.48868,-96.67605c207.32651,-18.00828 473.50116,10.42585 731.5276,76.77216c139.42481,36.01657 298.76746,87.198 298.76746,96.67605c0,4.73902 -17.20176,0.9478 -38.02495,-6.63463c-84.1981,-31.27754 -307.82102,-90.98922 -419.1798,-111.84092c-194.65153,-37.91218 -306.01031,-46.44242 -500.66184,-40.75559c-192.84082,5.68683 -280.66034,19.90389 -456.29939,73.92874l-97.77844,30.32974l0,36.01657c0,20.8517 -3.62142,36.96437 -8.1482,36.96437c-5.43214,0 -6.33749,-15.16487 -3.62142,-35.06876c5.43214,-32.22535 4.52678,-34.12096 -16.29641,-27.48633c-95.96773,27.48633 -193.74617,53.07705 -208.23187,53.07705c-17.20176,0 -17.20176,0.9478 1.81071,27.48633c14.4857,20.8517 19.01247,40.75559 18.10712,80.56337c0,29.38194 -2.71607,57.81607 -5.43214,62.55509c-8.1482,14.21707 11.76963,11.37365 85.10346,-12.32146c61.5642,-18.95609 95.06237,-44.54681 60.65885,-44.54681c-8.1482,0 -22.6339,-8.53024 -32.59281,-18.95609c-14.4857,-15.16487 -21.72854,-17.06048 -44.36244,-8.53024c-15.39105,5.68683 -32.59281,8.53024 -38.93031,5.68683c-6.33749,-1.89561 4.52678,-8.53024 25.34997,-15.16487c29.87675,-8.53024 36.21424,-14.21707 36.21424,-31.27754c-0.90536,-15.16487 4.52678,-22.74731 18.10712,-24.64291c26.25532,-3.79122 57.94278,39.80778 57.94278,78.66776c0,26.53852 2.71607,30.32974 18.10712,26.53852c14.4857,-3.79122 18.10712,-13.26926 18.10712,-45.49461c0,-37.91218 -1.81071,-40.75559 -19.91783,-36.01657c-52.51064,11.37365 13.58034,-18.00828 105.92665,-48.33802c119.50698,-38.85998 179.26048,-53.07705 206.42115,-52.12924c10.86427,0.9478 0,6.63463 -24.44461,12.32146c-43.45709,10.42585 -43.45709,11.37365 -20.82319,21.7995c29.87675,15.16487 37.11959,42.6512 29.87675,128.9014c-2.71607,36.96437 -5.43214,90.04142 -5.43214,116.57994l0,48.33802l-51.60529,6.63463c-28.97139,3.79122 -68.80705,8.53024 -87.81953,12.32146c-25.34997,3.79122 -33.49817,2.84341 -28.97139,-4.73902c9.95892,-18.00828 -11.76963,-12.32146 -89.63024,19.90389c-53.416,23.69511 -73.33383,36.01657 -75.14454,50.23363c-2.71607,18.95609 -3.62142,18.95609 -87.81953,-4.73902c-76.0499,-21.7995 -85.10346,-26.53852 -80.57668,-42.6512c4.52678,-14.21707 2.71607,-17.06048 -9.95892,-11.37365c-33.49817,13.26926 -146.66766,26.53852 -191.93546,22.74731c-28.97139,-2.84341 -48.88922,0 -51.60529,5.68683c-1.81071,5.68683 -4.52678,-14.21707 -4.52678,-43.599c-0.90536,-33.17315 -4.52678,-54.97265 -10.86427,-54.97265c-5.43214,0 -7.24285,10.42585 -4.52678,26.53852c2.71607,14.21707 7.24285,57.81607 9.95892,96.67605c3.62142,38.85998 8.1482,78.66776 9.95892,88.14581c2.71607,8.53024 0.90536,16.11267 -4.52678,16.11267c-4.52678,0 -9.95892,-11.37365 -11.76963,-25.59072c-2.71607,-23.69511 -9.05356,-27.48633 -75.14454,-47.39022c-39.83566,-12.32146 -82.38739,-22.74731 -95.06237,-24.64291c-12.67498,-1.89561 -28.06603,-5.68683 -33.49817,-9.47804c-17.20176,-11.37365 -21.72854,23.69511 -5.43214,43.599c12.67498,14.21707 13.58034,18.00828 2.71607,14.21707c-7.24285,-2.84341 -19.01247,3.79122 -25.34997,15.16487c-10.86427,18.95609 -11.76963,18.00828 -8.1482,-11.37365c1.81071,-20.8517 -1.81071,-35.06876 -13.58034,-46.44242c-15.39105,-14.21707 -16.29641,-13.26926 -16.29641,14.21707c0,16.11267 -4.52678,32.22535 -9.95892,36.01657c-7.24285,3.79122 -8.1482,-4.73902 -4.52678,-30.32974c3.62142,-23.69511 0.90536,-42.6512 -6.33749,-52.12924c-9.05356,-12.32146 -133.08732,-50.23363 -140.33017,-42.6512c-0.90536,1.89561 8.1482,25.59072 19.91783,54.02485c31.68746,71.08533 53.416,165.86577 47.07851,201.88234c-2.71607,16.11267 -13.58034,43.599 -23.53925,60.65948c-22.6339,37.91218 -59.75349,40.75559 -96.87309,7.58244zm46.17315,-37.91218c16.29641,-21.7995 19.01247,-39.80778 19.01247,-117.52774c0,-75.82435 -3.62142,-102.36287 -22.6339,-150.7009c-11.76963,-33.17315 -24.44461,-59.71168 -28.06603,-59.71168c-2.71607,0 -5.43214,18.00828 -6.33749,40.75559c-0.90536,21.7995 -7.24285,89.09361 -14.4857,148.80529c-10.86427,92.88483 -10.86427,113.73653 0,140.27505c14.4857,36.01657 26.25532,36.01657 52.51064,-1.89561zm425.51729,-225.57745c-3.62142,-22.74731 -7.24285,-41.70339 -8.1482,-43.599c-0.90536,-0.9478 -22.6339,-3.79122 -47.98386,-5.68683c-40.74102,-2.84341 -47.07851,-0.9478 -47.07851,14.21707c0,10.42585 -4.52678,18.00828 -9.95892,18.00828c-6.33749,0 -8.1482,-10.42585 -5.43214,-24.64291c2.71607,-17.06048 -1.81071,-31.27754 -12.67498,-42.6512c-17.20176,-18.00828 -17.20176,-17.06048 -17.20176,9.47804c0,16.11267 -4.52678,31.27754 -10.86427,35.06876c-7.24285,4.73902 -8.1482,-4.73902 -4.52678,-32.22535c2.71607,-21.7995 0.90536,-42.6512 -3.62142,-45.49461c-4.52678,-2.84341 -8.1482,-9.47804 -8.1482,-14.21707c0,-5.68683 3.62142,-7.58244 8.1482,-4.73902c15.39105,10.42585 17.20176,-54.97265 1.81071,-73.92874c-13.58034,-17.06048 -13.58034,-18.00828 1.81071,-12.32146c8.1482,3.79122 15.39105,1.89561 15.39105,-2.84341c0,-5.68683 4.52678,-9.47804 9.95892,-9.47804c5.43214,0 7.24285,6.63463 4.52678,15.16487c-5.43214,16.11267 8.1482,41.70339 22.6339,41.70339c4.52678,0 8.1482,-5.68683 8.1482,-13.26926c0,-7.58244 4.52678,-17.06048 9.95892,-20.8517c6.33749,-3.79122 9.05356,3.79122 7.24285,22.74731c-1.81071,15.16487 2.71607,36.01657 9.95892,45.49461c11.76963,15.16487 11.76963,16.11267 -0.90536,11.37365c-11.76963,-4.73902 -16.29641,0.9478 -19.91783,23.69511c-5.43214,36.01657 -6.33749,35.06876 26.25532,40.75559c14.4857,2.84341 33.49817,6.63463 42.55173,9.47804c18.10712,5.68683 19.01247,-4.73902 5.43214,-54.97265c-6.33749,-25.59072 -14.4857,-36.01657 -26.25532,-36.01657c-9.05356,0 -19.91783,-4.73902 -23.53925,-10.42585c-3.62142,-7.58244 0,-8.53024 13.58034,-3.79122c11.76963,3.79122 19.01247,1.89561 19.01247,-4.73902c0,-6.63463 13.58034,-2.84341 31.68746,9.47804c38.02495,24.64291 38.93031,16.11267 9.05356,-49.28583c-16.29641,-35.06876 -22.6339,-64.4507 -22.6339,-103.31068l0,-54.02485l-89.63024,-32.22535l-89.63024,-32.22535l0.90536,50.23363l0.90536,50.23363l86.91417,30.32974c47.07851,16.11267 80.57668,31.27754 74.23919,34.12096c-6.33749,1.89561 -45.2678,-9.47804 -86.91417,-25.59072l-76.0499,-28.43413l-10.86427,27.48633c-6.33749,15.16487 -16.29641,33.17315 -23.53925,38.85998c-19.91783,17.06048 -15.39105,23.69511 23.53925,36.01657c19.01247,5.68683 38.02495,15.16487 40.74102,20.8517c3.62142,4.73902 -15.39105,0.9478 -40.74102,-9.47804c-28.97139,-11.37365 -57.94278,-17.06048 -76.95526,-13.26926c-36.21424,5.68683 -85.10346,-9.47804 -112.26414,-36.01657c-10.86427,-11.37365 -21.72854,-18.00828 -24.44461,-16.11267c-1.81071,2.84341 -6.33749,23.69511 -9.05356,46.44242l-5.43214,42.6512l47.98386,12.32146c80.57668,21.7995 218.19078,68.24192 214.56936,72.03313c-1.81071,2.84341 -16.29641,0.9478 -31.68746,-3.79122c-23.53925,-7.58244 -28.97139,-5.68683 -32.59281,8.53024c-2.71607,10.42585 2.71607,24.64291 12.67498,34.12096c15.39105,14.21707 17.20176,14.21707 17.20176,0.9478c0,-8.53024 4.52678,-18.00828 9.95892,-20.8517c6.33749,-4.73902 8.1482,3.79122 6.33749,23.69511c-1.81071,19.90389 1.81071,33.17315 10.86427,38.85998c11.76963,5.68683 162.96407,52.12924 183.78726,54.97265c3.62142,0.9478 3.62142,-17.06048 0.90536,-38.85998zm-229.05505,-39.80778c-14.4857,-17.06048 -14.4857,-17.06048 -17.20176,2.84341c-1.81071,11.37365 1.81071,27.48633 8.1482,36.01657c10.86427,12.32146 12.67498,12.32146 18.10712,-3.79122c3.62142,-10.42585 0,-23.69511 -9.05356,-35.06876zm669.05804,20.8517c0,-6.63463 2.71607,-28.43413 5.43214,-47.39022l5.43214,-35.06876l-56.13207,18.95609c-30.7821,9.47804 -65.18563,18.00828 -75.14454,17.06048c-10.86427,0 12.67498,-10.42585 51.60529,-22.74731c38.93031,-12.32146 75.14454,-27.48633 78.76597,-35.06876c7.24285,-10.42585 11.76963,-74.87655 6.33749,-73.92874c-1.81071,0.9478 -35.30888,10.42585 -75.14454,22.74731l-72.42848,22.74731l-7.24285,40.75559c-9.95892,63.50289 -7.24285,67.29411 57.03742,85.3024c73.33383,19.90389 81.48203,20.8517 81.48203,6.63463zm48.88922,-19.90389c10.86427,-8.53024 15.39105,-21.7995 12.67498,-46.44242c-2.71607,-30.32974 -4.52678,-33.17315 -22.6339,-25.59072c-17.20176,6.63463 -20.82319,15.16487 -20.82319,46.44242c0,40.75559 5.43214,45.49461 30.7821,25.59072zm-746.0133,-15.16487c0,-10.42585 -3.62142,-21.7995 -9.05356,-24.64291c-10.86427,-6.63463 -12.67498,-24.64291 -1.81071,-20.8517c3.62142,0.9478 7.24285,-1.89561 9.05356,-7.58244c1.81071,-4.73902 -36.21424,-19.90389 -83.29275,-34.12096c-47.07851,-14.21707 -89.63024,-28.43413 -94.15702,-31.27754c-15.39105,-9.47804 -18.10712,27.48633 -4.52678,61.60729c10.86427,30.32974 17.20176,33.17315 86.91417,52.12924c96.87309,25.59072 96.87309,25.59072 96.87309,4.73902zm487.98685,-1.89561c27.16068,-4.73902 49.79458,-9.47804 50.69993,-10.42585c0.90536,-1.89561 4.52678,-20.8517 7.24285,-43.599c4.52678,-36.01657 2.71607,-39.80778 -11.76963,-35.06876c-28.97139,9.47804 -121.3177,23.69511 -155.72122,23.69511c-28.06603,0 -34.40353,3.79122 -34.40353,18.95609c0,22.74731 -5.43214,23.69511 -25.34997,2.84341c-14.4857,-15.16487 -15.39105,-14.21707 -19.91783,17.06048c-4.52678,29.38194 -2.71607,32.22535 22.6339,37.91218c29.87675,6.63463 89.63024,2.84341 166.58549,-11.37365zm388.3977,-69.18972l2.71607,-33.17315l-54.32136,18.95609c-54.32136,19.90389 -55.22671,19.90389 -55.22671,55.92046l0,36.01657l52.51064,-22.74731c47.98386,-19.90389 51.60529,-23.69511 54.32136,-54.97265zm146.66766,10.42585c0,-10.42585 -4.52678,-16.11267 -10.86427,-14.21707c-55.22671,21.7995 -108.64271,36.96437 -113.16949,33.17315c-2.71607,-2.84341 26.25532,-15.16487 64.28027,-27.48633c66.99634,-20.8517 68.80705,-22.74731 68.80705,-52.12924c0,-17.06048 -0.90536,-31.27754 -1.81071,-31.27754c-1.81071,0 -33.49817,10.42585 -70.61776,21.7995l-67.9017,21.7995l-2.71607,42.6512l-2.71607,42.6512l68.80705,-9.47804c57.94278,-7.58244 67.9017,-11.37365 67.9017,-27.48633zm-874.57384,-8.53024c4.52678,-23.69511 1.81071,-34.12096 -9.95892,-43.599c-14.4857,-10.42585 -17.20176,-8.53024 -22.6339,18.95609c-5.43214,29.38194 3.62142,54.97265 19.91783,54.97265c3.62142,0 9.05356,-14.21707 12.67498,-30.32974zm607.49384,-5.68683c10.86427,-8.53024 18.10712,-87.198 7.24285,-87.198c-19.01247,0.9478 -31.68746,19.90389 -36.21424,55.92046c-5.43214,38.85998 5.43214,50.23363 28.97139,31.27754zm-403.78875,-12.32146c7.24285,11.37365 30.7821,10.42585 142.14088,-9.47804l56.13207,-10.42585l4.52678,-38.85998c2.71607,-21.7995 3.62142,-40.75559 1.81071,-42.6512c-1.81071,-1.89561 -17.20176,0.9478 -35.30888,7.58244c-17.20176,5.68683 -63.37492,11.37365 -102.30522,13.26926c-38.93031,0.9478 -78.76597,5.68683 -87.81953,10.42585c-9.95892,4.73902 -28.06603,3.79122 -43.45709,-2.84341c-21.72854,-8.53024 -25.34997,-7.58244 -16.29641,2.84341c5.43214,6.63463 20.82319,15.16487 33.49817,18.95609c13.58034,2.84341 19.91783,8.53024 15.39105,12.32146c-15.39105,10.42585 -21.72854,37.91218 -9.95892,42.6512c6.33749,1.89561 16.29641,0 22.6339,-5.68683c9.05356,-7.58244 14.4857,-6.63463 19.01247,1.89561zm483.46007,-14.21707c23.53925,-8.53024 42.55173,-19.90389 42.55173,-25.59072c0,-6.63463 2.71607,-28.43413 6.33749,-49.28583c2.71607,-20.8517 1.81071,-35.06876 -1.81071,-31.27754c-9.95892,9.47804 -56.13207,-26.53852 -63.37492,-49.28583c-9.95892,-33.17315 -37.11959,-7.58244 -38.93031,38.85998c-2.71607,34.12096 -0.90536,38.85998 13.58034,33.17315c26.25532,-11.37365 66.09098,-18.00828 66.09098,-11.37365c0,2.84341 -18.10712,10.42585 -40.74102,16.11267c-40.74102,10.42585 -40.74102,11.37365 -40.74102,52.12924c0,22.74731 3.62142,41.70339 7.24285,41.70339c4.52678,0 26.25532,-6.63463 49.79458,-15.16487zm-1037.53791,-176.29162c-22.6339,-47.39022 -14.4857,-79.61557 27.16068,-107.1019c41.64637,-26.53852 40.74102,-58.76387 -1.81071,-67.29411c-17.20176,-2.84341 -34.40353,-10.42585 -38.02495,-16.11267c-3.62142,-5.68683 1.81071,-7.58244 16.29641,-2.84341c64.28027,18.00828 62.46956,18.00828 62.46956,-4.73902c0,-12.32146 2.71607,-32.22535 5.43214,-43.599c4.52678,-18.95609 1.81071,-21.7995 -17.20176,-21.7995c-36.21424,0 -76.95526,42.6512 -92.34631,97.62385c-17.20176,59.71168 -17.20176,72.98094 -0.90536,72.98094c7.24285,0 16.29641,4.73902 19.91783,10.42585c3.62142,7.58244 0,8.53024 -13.58034,3.79122c-17.20176,-5.68683 -19.01247,-2.84341 -19.01247,39.80778c0,24.64291 10.86427,79.61557 24.44461,121.31896l24.44461,75.82435l9.95892,-59.71168c9.95892,-54.02485 9.05356,-63.50289 -7.24285,-98.57166zm1176.96272,129.8492c54.32136,-16.11267 55.22671,-17.06048 58.84814,-53.07705c2.71607,-29.38194 0,-36.96437 -11.76963,-36.96437c-24.44461,0 -65.18563,-45.49461 -59.75349,-67.29411c3.62142,-15.16487 1.81071,-18.00828 -9.05356,-14.21707c-8.1482,3.79122 -31.68746,10.42585 -52.51064,16.11267l-38.02495,10.42585l21.72854,22.74731c12.67498,13.26926 19.91783,29.38194 17.20176,36.96437c-5.43214,17.06048 0.90536,18.00828 38.02495,3.79122c15.39105,-5.68683 35.30888,-8.53024 44.36244,-6.63463c9.05356,2.84341 -7.24285,9.47804 -35.30888,17.06048l-52.51064,12.32146l0,42.6512c0,30.32974 3.62142,40.75559 11.76963,36.96437c6.33749,-2.84341 37.11959,-12.32146 66.99634,-20.8517zm-667.24733,-42.6512c0,-11.37365 -36.21424,-32.22535 -42.55173,-24.64291c-8.1482,7.58244 15.39105,34.12096 29.87675,34.12096c7.24285,0 12.67498,-3.79122 12.67498,-9.47804zm182.8819,3.79122l40.74102,-5.68683l-21.72854,-24.64291c-10.86427,-13.26926 -20.82319,-33.17315 -20.82319,-45.49461c0,-20.8517 -2.71607,-21.7995 -44.36244,-16.11267c-38.93031,4.73902 -121.3177,-5.68683 -179.26048,-21.7995c-18.10712,-5.68683 -20.82319,-2.84341 -20.82319,23.69511c0,25.59072 3.62142,29.38194 23.53925,29.38194c16.29641,0 33.49817,11.37365 52.51064,32.22535c25.34997,30.32974 32.59281,33.17315 78.76597,33.17315c28.06603,0.9478 68.80705,-1.89561 91.44095,-4.73902zm-504.28326,-13.26926c5.43214,0 16.29641,-12.32146 25.34997,-27.48633c22.6339,-40.75559 20.82319,-141.22285 -3.62142,-184.82186c-10.86427,-18.95609 -20.82319,-34.12096 -23.53925,-34.12096c-2.71607,0 -1.81071,17.06048 1.81071,38.85998c9.95892,58.76387 -2.71607,135.53603 -28.06603,174.39601c-27.16068,41.70339 -27.16068,46.44242 -0.90536,38.85998c10.86427,-2.84341 24.44461,-5.68683 28.97139,-5.68683zm-42.55173,-56.86826c19.01247,-29.38194 20.82319,-40.75559 18.10712,-105.20629c-3.62142,-56.86826 -9.05356,-81.51118 -28.06603,-115.63214c-23.53925,-40.75559 -39.83566,-60.65948 -46.17315,-53.07705c-1.81071,1.89561 -5.43214,21.7995 -8.1482,43.599c-4.52678,39.80778 -3.62142,40.75559 26.25532,46.44242c17.20176,2.84341 33.49817,9.47804 36.21424,14.21707c6.33749,11.37365 -8.1482,10.42585 -38.02495,-0.9478c-19.01247,-7.58244 -26.25532,-7.58244 -32.59281,1.89561c-11.76963,19.90389 -9.05356,26.53852 15.39105,37.91218c19.91783,9.47804 34.40353,33.17315 36.21424,58.76387c0,4.73902 8.1482,12.32146 18.10712,17.06048c17.20176,7.58244 17.20176,7.58244 -1.81071,3.79122c-10.86427,-1.89561 -21.72854,1.89561 -24.44461,9.47804c-2.71607,8.53024 -19.01247,13.26926 -41.64637,13.26926c-30.7821,0 -36.21424,2.84341 -36.21424,19.90389c0,27.48633 25.34997,46.44242 58.84814,43.599c19.01247,-0.9478 32.59281,-11.37365 47.98386,-35.06876zm590.29207,4.73902c-6.33749,-8.53024 -13.58034,-12.32146 -16.29641,-9.47804c-2.71607,1.89561 0.90536,10.42585 7.24285,18.95609c6.33749,8.53024 13.58034,12.32146 16.29641,9.47804c2.71607,-1.89561 -0.90536,-10.42585 -7.24285,-18.95609zm334.9817,0.9478c0,-2.84341 -3.62142,-7.58244 -9.05356,-10.42585c-4.52678,-2.84341 -9.05356,-0.9478 -9.05356,3.79122c0,5.68683 4.52678,10.42585 9.05356,10.42585c5.43214,0 9.05356,-1.89561 9.05356,-3.79122zm-1041.15933,-31.27754c-0.90536,-9.47804 -6.33749,-27.48633 -13.58034,-40.75559c-11.76963,-20.8517 -12.67498,-21.7995 -13.58034,-4.73902c0,28.43413 9.95892,61.60729 19.01247,61.60729c4.52678,0 8.1482,-7.58244 8.1482,-16.11267zm-89.63024,-178.18723c6.33749,-15.16487 19.01247,-39.80778 28.97139,-54.02485l16.29641,-26.53852l-32.59281,0c-22.6339,0 -38.93031,7.58244 -56.13207,24.64291c-21.72854,22.74731 -22.6339,28.43413 -18.10712,91.93703c2.71607,37.91218 11.76963,87.198 21.72854,110.89311l16.29641,42.6512l5.43214,-80.56337c3.62142,-44.54681 10.86427,-92.88483 18.10712,-108.99751zm153.00515,128.9014c0,-24.64291 -22.6339,-41.70339 -45.2678,-34.12096c-21.72854,7.58244 -22.6339,17.06048 -3.62142,36.96437c19.91783,20.8517 48.88922,19.90389 48.88922,-2.84341zm-88.72488,-405.66028c28.06603,-26.53852 19.91783,-66.34631 -17.20176,-87.198c-40.74102,-21.7995 -75.14454,-0.9478 -75.14454,46.44242c0,51.18144 55.22671,75.82435 92.34631,40.75559z"/>
   <path stroke="null" id="svg_4" d="m246.24999,810.81827c-11.76963,-8.53024 -11.76963,-9.47804 0,-9.47804c7.24285,0 19.91783,4.73902 27.16068,9.47804c11.76963,8.53024 11.76963,9.47804 0,9.47804c-7.24285,0 -19.91783,-4.73902 -27.16068,-9.47804z"/>
   <path stroke="null" id="svg_5" d="m2705.19673,1296.09412c-8.1482,-10.42585 -53.416,-47.39022 -100.49451,-83.40679c-99.58915,-75.82435 -108.64271,-94.78044 -11.76963,-23.69511c76.95526,55.92046 152.0998,123.21457 137.6141,124.16238c-5.43214,0 -16.29641,-7.58244 -25.34997,-17.06048z"/>
   <path stroke="null" id="svg_6" d="m2351.20255,1164.34931c-69.71241,-43.599 -150.28909,-82.45898 -255.31038,-122.26677c-79.67132,-30.32974 -84.1981,-31.27754 -84.1981,-13.26926c0,10.42585 -4.52678,18.95609 -9.95892,18.95609c-5.43214,0 -8.1482,-8.53024 -5.43214,-18.95609c5.43214,-21.7995 1.81071,-22.74731 -113.16949,-46.44242c-53.416,-11.37365 -72.42848,-18.00828 -52.51064,-18.95609c17.20176,0 63.37492,6.63463 101.39987,17.06048l69.71241,17.06048l8.1482,-38.85998c4.52678,-21.7995 6.33749,-40.75559 5.43214,-42.6512c-4.52678,-5.68683 -160.248,-38.85998 -185.59797,-38.85998c-22.6339,0 -24.44461,3.79122 -34.40353,72.03313l-11.76963,72.03313l-86.91417,-6.63463c-48.88922,-3.79122 -88.72488,-7.58244 -89.63024,-8.53024c-0.90536,-0.9478 3.62142,-44.54681 10.86427,-95.72824c16.29641,-120.37116 16.29641,-118.47555 -2.71607,-118.47555c-25.34997,0 -67.9017,-51.18144 -61.5642,-73.92874c4.52678,-14.21707 19.91783,-20.8517 72.42848,-30.32974c37.11959,-6.63463 85.10346,-9.47804 107.73736,-5.68683c47.07851,7.58244 87.81953,43.599 87.81953,76.77216c0,19.90389 6.33749,22.74731 73.33383,33.17315c40.74102,5.68683 79.67132,13.26926 87.81953,17.06048c9.95892,3.79122 7.24285,-4.73902 -9.05356,-25.59072c-27.16068,-33.17315 -32.59281,-68.24192 -13.58034,-84.35459c18.10712,-16.11267 45.2678,-3.79122 68.80705,32.22535c19.01247,29.38194 20.82319,38.85998 15.39105,94.78044c-3.62142,35.06876 -7.24285,67.29411 -8.1482,72.03313c-0.90536,4.73902 38.93031,22.74731 88.72488,39.80778c101.39987,35.06876 200.08366,79.61557 192.84082,86.2502c-2.71607,2.84341 -27.16068,-5.68683 -55.22671,-18.95609c-28.06603,-12.32146 -92.34631,-37.91218 -142.14088,-55.92046l-90.53559,-33.17315l-6.33749,39.80778c-2.71607,21.7995 -6.33749,40.75559 -6.33749,42.6512c-0.90536,1.89561 33.49817,15.16487 76.0499,30.32974c42.55173,14.21707 104.11593,39.80778 136.70875,54.97265c57.03742,26.53852 180.16583,103.31068 180.16583,111.84092c0,5.68683 -0.90536,5.68683 -58.84814,-31.27754zm-574.90102,-182.92625c0,-17.06048 -6.33749,-18.95609 -62.46956,-18.95609c-34.40353,0 -68.80705,-2.84341 -76.95526,-5.68683c-9.95892,-3.79122 -14.4857,0 -14.4857,14.21707c0,17.06048 6.33749,18.95609 70.61776,22.74731c38.02495,0.9478 72.42848,3.79122 76.95526,4.73902c3.62142,0.9478 6.33749,-6.63463 6.33749,-17.06048zm16.29641,-106.15409l10.86427,-76.77216l-37.11959,-33.17315c-27.16068,-24.64291 -35.30888,-37.91218 -31.68746,-53.07705c4.52678,-18.95609 1.81071,-19.90389 -63.37492,-17.06048l-66.99634,3.79122l22.6339,28.43413c19.91783,24.64291 21.72854,33.17315 17.20176,79.61557l-6.33749,51.18144l76.0499,1.89561l76.0499,1.89561l-76.95526,4.73902l-76.95526,5.68683l-5.43214,35.06876l-5.43214,35.06876l37.11959,3.79122c20.82319,1.89561 56.13207,3.79122 78.76597,4.73902l41.64637,1.89561l9.95892,-77.71996zm235.39254,-50.23363c-1.81071,-2.84341 -26.25532,-6.63463 -53.416,-9.47804c-27.16068,-2.84341 -71.52312,-8.53024 -98.6838,-13.26926c-27.16068,-4.73902 -52.51064,-6.63463 -56.13207,-3.79122c-4.52678,1.89561 -7.24285,18.95609 -7.24285,36.96437c0,31.27754 0.90536,32.22535 38.93031,33.17315c20.82319,0 66.99634,7.58244 101.39987,17.06048l63.37492,16.11267l8.1482,-36.01657c4.52678,-19.90389 6.33749,-38.85998 3.62142,-40.75559zm-21.72854,-81.51118c-8.1482,-9.47804 -19.01247,-18.00828 -23.53925,-18.00828c-13.58034,0 -7.24285,21.7995 13.58034,45.49461c17.20176,18.95609 20.82319,19.90389 22.6339,6.63463c1.81071,-8.53024 -3.62142,-23.69511 -12.67498,-34.12096zm-409.22089,-10.42585c-6.33749,-6.63463 -10.86427,-7.58244 -10.86427,-1.89561c0,13.26926 10.86427,24.64291 17.20176,18.00828c1.81071,-2.84341 -0.90536,-10.42585 -6.33749,-16.11267z"/>
   <path stroke="null" id="svg_7" d="m1658.60526,782.38414c0,-12.32146 81.48203,-12.32146 99.58915,0c9.95892,6.63463 -2.71607,9.47804 -42.55173,9.47804c-32.59281,0 -57.03742,-3.79122 -57.03742,-9.47804z"/>
   <path stroke="null" id="svg_8" d="m780.41,1162.4537c-15.39105,-5.68683 6.33749,-8.53024 72.42848,-9.47804c81.48203,-0.9478 154.81587,-12.32146 230.86577,-35.06876c11.76963,-3.79122 15.39105,-2.84341 9.05356,3.79122c-28.06603,28.43413 -260.74251,58.76387 -312.3478,40.75559z"/>
   <path stroke="null" id="svg_9" d="m2726.92527,1028.81328c-38.93031,-86.2502 -116.79092,-139.32725 -152.0998,-102.36287c-8.1482,8.53024 -10.86427,8.53024 -10.86427,0c0,-5.68683 8.1482,-15.16487 18.10712,-20.8517c27.16068,-15.16487 75.14454,3.79122 107.73736,43.599c31.68746,37.91218 66.99634,105.20629 62.46956,119.42335c-1.81071,4.73902 -13.58034,-12.32146 -25.34997,-39.80778z"/>
   <path stroke="null" id="svg_10" d="m1536.38221,952.98893c9.95892,-4.73902 30.7821,-8.53024 45.2678,-8.53024c20.82319,-0.9478 23.53925,1.89561 13.58034,8.53024c-7.24285,4.73902 -28.06603,8.53024 -45.2678,8.53024c-26.25532,0 -28.06603,-1.89561 -13.58034,-8.53024z"/>
   <path stroke="null" id="svg_11" d="m116.78409,889.48604c-28.97139,-8.53024 -50.69993,-17.06048 -47.98386,-18.95609c5.43214,-5.68683 141.23553,24.64291 141.23553,31.27754c0,7.58244 -40.74102,1.89561 -93.25166,-12.32146z"/>
   <path stroke="null" id="svg_12" d="m1545.43577,877.16458c9.95892,-4.73902 30.7821,-7.58244 45.2678,-7.58244c26.25532,0 26.25532,0 4.52678,7.58244c-12.67498,3.79122 -32.59281,7.58244 -45.2678,7.58244c-20.82319,0.9478 -20.82319,0 -4.52678,-7.58244z"/>
   <path stroke="null" id="svg_13" d="m1531.85543,797.54901c0,-7.58244 46.17315,-12.32146 50.69993,-4.73902c2.71607,4.73902 -8.1482,8.53024 -22.6339,8.53024c-15.39105,0 -28.06603,-1.89561 -28.06603,-3.79122z"/>
   <path stroke="null" id="svg_14" d="m113.16267,780.48853c-21.72854,-4.73902 -38.93031,-12.32146 -38.93031,-17.06048c0,-9.47804 63.37492,6.63463 76.95526,19.90389c4.52678,4.73902 6.33749,8.53024 4.52678,7.58244c-2.71607,-0.9478 -21.72854,-4.73902 -42.55173,-10.42585z"/>
   <path stroke="null" id="svg_15" d="m2085.93326,720.77685c-49.79458,-10.42585 -83.29275,-23.69511 -59.75349,-23.69511c18.10712,0 160.248,28.43413 164.77478,33.17315c8.1482,7.58244 -43.45709,3.79122 -105.02129,-9.47804z"/>
   <path stroke="null" id="svg_16" d="m1794.40865,687.6037c-16.29641,-11.37365 45.2678,-11.37365 113.16949,0c43.45709,6.63463 41.64637,6.63463 -27.16068,8.53024c-39.83566,0 -78.76597,-3.79122 -86.00881,-8.53024z"/>
   <path stroke="null" id="svg_17" d="m74.23236,649.69152c0,-12.32146 9.95892,-12.32146 27.16068,0c10.86427,7.58244 9.95892,9.47804 -6.33749,9.47804c-11.76963,0 -20.82319,-3.79122 -20.82319,-9.47804z"/>
  </g>
 </g>
</svg>
